<?xml version="1.0" encoding="UTF-8"?>
<svg id="_レイヤー_2" xmlns="http://www.w3.org/2000/svg" viewBox="0 0 576 480">
  <defs>
    <style>
      .cls-1 {
        fill: #29abe2;
        font-family: YuGothic-Medium, 'Yu Gothic';
        font-size: 63px;
        font-weight: 500;
        letter-spacing: .1em;
      }

      .cls-1, .cls-2 {
        isolation: isolate;
      }

      .cls-3 {
        fill: #fff;
      }

      .cls-4 {
        fill: none;
        stroke: #29abe2;
        stroke-miterlimit: 10;
        stroke-width: 6px;
      }

      .cls-5 {
        fill: #ffc080;
      }
    </style>
  </defs>
  <circle class="cls-3" cx="288" cy="240" r="240"/>
  <g id="_レイヤー_2-2">
    <path class="cls-5" d="M98.55,220.5c2.06-15.75-2.52-51.01-23.59-84.75-18.21-29.13-46.76-56.73-60.69-48.9-14.21,7.98,2.56,40.48,23.59,71.72,22.05,32.73,46.47,57.84,60.69,61.93Z"/>
    <path class="cls-4" d="M144.48,199.11c-26.58-44.58-73.65-56.37-97.31-41.11-20.98,13.53-26.58,50.37-12.17,70.49,23.19,32.36,98.33,21.67,121.62-11.75,18.33-26.29,5.22-67.65,0-67.54-12.51.27-22.42,239.13-9.12,240.81,1.53.2-17.98-119.8,42.57-167.4,53.17-41.79,165.39,48.85,243.24,11.75,9.21-4.4,28.86-13.75,27.36-20.55-1.86-8.42-36.18-13.23-42.57-2.94-5.96,9.6,10.05,36.09,30.4,41.12,33.53,8.26,76.56-25.37,82.1-76.35,3.24-29.77.07-64.02-12.16-64.6-13.1-.63-22.72,31.19-18.24,64.6,6.88,51.33,51.2,79.55,57.77,82.23"/>
    <path class="cls-4" d="M204.75,151.9c27.27,66.04,44.47,60.04,52.29,58.22,11.4-2.67,10.16-46.26,17.43-46.58,7.75-.33,9.18,49.29,23.24,52.4,9.9,2.17,100.7-58.97,136.54-148.44"/>
    <path class="cls-5" d="M99.33,220.5c-1.54,11.81,1.89,38.26,17.7,63.57,13.65,21.86,35.07,42.54,45.51,36.67,10.65-5.99-1.92-30.36-17.7-53.79-16.53-24.54-34.84-43.38-45.51-46.46Z"/>
    <g class="cls-2">
      <text class="cls-1" transform="translate(383.22 390.1) scale(.8 1)"><tspan x="0" y="0">design</tspan></text>
    </g>
  </g>
</svg>